<?xml version="1.0" encoding="UTF-8"?>
<svg width="24px" height="24px" viewBox="0 0 24 24" version="1.1" xmlns="http://www.w3.org/2000/svg" xmlns:xlink="http://www.w3.org/1999/xlink">
    <!-- Generator: Sketch 62 (91390) - https://sketch.com -->
    <title>扬尘2</title>
    <desc>Created with Sketch.</desc>
    <g id="页面-1" stroke="none" stroke-width="1" fill="none" fill-rule="evenodd">
        <g id="大气-圆形icon" transform="translate(-101.000000, -212.000000)">
            <g id="扬尘2" transform="translate(101.000000, 212.000000)">
                <rect id="形状结合备份-19" stroke="#071E31" stroke-width="0.8" fill="#F8C900" x="0.4" y="0.4" width="23.2" height="23.2" rx="11.6"></rect>
                <path d="M12,5 C15.8659932,5 19,8.13400675 19,12 C19,15.8659932 15.8659932,19 12,19 C8.13400675,19 5,15.8659932 5,12 C5,8.13400675 8.13400675,5 12,5 Z M15.5,14.8 L8.5,14.8 C8.11340068,14.8 7.8,15.1134007 7.8,15.5 L7.8,15.5 L7.8,16.2 L16.2,16.2 L16.2,15.5 C16.2,15.1134007 15.8865993,14.8 15.5,14.8 L15.5,14.8 Z M12,12.7 C11.6134007,12.7 11.3,13.0134007 11.3,13.4 C11.3,13.7865993 11.6134007,14.1 12,14.1 C12.3865993,14.1 12.7,13.7865993 12.7,13.4 C12.7,13.0134007 12.3865993,12.7 12,12.7 Z M9.2,11.3 C8.81340068,11.3 8.5,11.6134007 8.5,12 C8.5,12.3865993 8.81340068,12.7 9.2,12.7 C9.58659932,12.7 9.9,12.3865993 9.9,12 C9.9,11.6134007 9.58659932,11.3 9.2,11.3 Z M14.8,11.3 C14.4134007,11.3 14.1,11.6134007 14.1,12 C14.1,12.3865993 14.4134007,12.7 14.8,12.7 C15.1865993,12.7 15.5,12.3865993 15.5,12 C15.5,11.6134007 15.1865993,11.3 14.8,11.3 Z M12,9.9 C11.6134007,9.9 11.3,10.2134007 11.3,10.6 C11.3,10.9865993 11.6134007,11.3 12,11.3 C12.3865993,11.3 12.7,10.9865993 12.7,10.6 C12.7,10.2134007 12.3865993,9.9 12,9.9 Z M9.2,8.5 C8.81340068,8.5 8.5,8.81340068 8.5,9.2 C8.5,9.58659932 8.81340068,9.9 9.2,9.9 C9.58659932,9.9 9.9,9.58659932 9.9,9.2 C9.9,8.81340068 9.58659932,8.5 9.2,8.5 Z M14.8,8.5 C14.4134007,8.5 14.1,8.81340068 14.1,9.2 C14.1,9.58659932 14.4134007,9.9 14.8,9.9 C15.1865993,9.9 15.5,9.58659932 15.5,9.2 C15.5,8.81340068 15.1865993,8.5 14.8,8.5 Z" id="形状结合" fill="#FFFFFF"></path>
            </g>
        </g>
    </g>
</svg>
