<?xml version="1.0" encoding="UTF-8"?>
<svg width="24px" height="24px" viewBox="0 0 24 24" version="1.1" xmlns="http://www.w3.org/2000/svg" xmlns:xlink="http://www.w3.org/1999/xlink">
    <!-- Generator: Sketch 62 (91390) - https://sketch.com -->
    <title>采石场2</title>
    <desc>Created with Sketch.</desc>
    <g id="页面-1" stroke="none" stroke-width="1" fill="none" fill-rule="evenodd">
        <g id="大气-圆形icon" transform="translate(-101.000000, -183.000000)">
            <g id="采石场2" transform="translate(101.000000, 183.000000)">
                <rect id="形状结合备份-19" stroke="#071E31" stroke-width="0.8" fill="#F8C900" x="0.4" y="0.4" width="23.2" height="23.2" rx="11.6"></rect>
                <path d="M12,5 C15.8659932,5 19,8.13400675 19,12 C19,15.8659932 15.8659932,19 12,19 C8.13400675,19 5,15.8659932 5,12 C5,8.13400675 8.13400675,5 12,5 Z M13.5728619,8.5 L9.19994819,8.5 C8.81334887,8.5 8.49994819,8.81340068 8.49994819,9.2 L8.49994819,9.2 L8.49994819,10.4170274 L8.49994819,10.4170274 L11.3,10.417 L11.3,16.2 L12.7,16.2 L12.7007189,10.4247191 C14.6235487,10.4688612 15.7899757,10.7030009 16.2,11.1271381 L16.2,11.1271381 L16.1948314,10.9609938 C16.1091159,9.58747208 14.9679853,8.5 13.5728619,8.5 L13.5728619,8.5 Z" id="形状结合" fill="#FFFFFF"></path>
            </g>
        </g>
    </g>
</svg>
