<?xml version="1.0" encoding="UTF-8"?>
<svg width="14px" height="19px" viewBox="0 0 14 19" version="1.1" xmlns="http://www.w3.org/2000/svg" xmlns:xlink="http://www.w3.org/1999/xlink">
    <title>定位</title>
    <g id="页面-1" stroke="none" stroke-width="1" fill="none" fill-rule="evenodd">
        <g id="水环境" transform="translate(-831.000000, -564.000000)" fill="#FFFFFF">
            <g id="编组-11" transform="translate(783.000000, 55.000000)">
                <path d="M55,509 C58.8659932,509 62,512.134007 62,516 C62,516.962299 61.8058228,517.879246 61.4545129,518.713796 L61.4674751,518.713415 L61.4323218,518.765918 C61.0611415,519.627974 60.521735,520.400548 59.8554429,521.042299 L55.0215772,528.017014 L50.2688004,521.159101 C48.8742292,519.879512 48,518.04185 48,516 C48,512.134007 51.1340068,509 55,509 Z M55,513 C53.3431458,513 52,514.343146 52,516 C52,517.656854 53.3431458,519 55,519 C56.6568542,519 58,517.656854 58,516 C58,514.343146 56.6568542,513 55,513 Z" id="定位"></path>
            </g>
        </g>
    </g>
</svg>