<?xml version="1.0" encoding="UTF-8"?>
<svg width="19px" height="20px" viewBox="0 0 19 20" version="1.1" xmlns="http://www.w3.org/2000/svg" xmlns:xlink="http://www.w3.org/1999/xlink">
    <title>风速</title>
    <g id="页面-1" stroke="none" stroke-width="1" fill="none" fill-rule="evenodd">
        <g id="水环境" transform="translate(-828.000000, -464.000000)" fill="#FFFFFF" fill-rule="nonzero">
            <g id="编组-11" transform="translate(783.000000, 55.000000)">
                <path d="M51.2158442,421.378005 C53.1214487,421.378005 54.6662464,422.949932 54.6662464,424.889003 C54.6662464,426.828073 53.1214487,428.4 51.2158442,428.4 L51.2158442,428.4 L51.2158442,426.435806 C52.0553763,426.435806 52.7359515,425.743278 52.7359515,424.889003 C52.7359515,424.478765 52.5757978,424.085329 52.2907224,423.795248 C52.005647,423.505166 51.6190017,423.342199 51.2158442,423.342199 L51.2158442,423.342199 L45.9075332,423.342199 L45.9075332,421.378005 Z M60.312359,418.849105 C62.2979189,418.849105 63.9075332,420.486987 63.9075332,422.507417 C63.9075332,424.527847 62.2979189,426.165729 60.312359,426.165729 L60.312359,426.165729 L60.312359,424.201535 C61.2318465,424.201535 61.9772383,423.443052 61.9772383,422.507417 C61.9772383,421.571782 61.2318465,420.813299 60.312359,420.813299 L60.312359,420.813299 L45.9075332,420.813299 L45.9075332,418.849105 Z M57.851233,411.557033 C59.6369043,411.557033 61.0844769,413.030028 61.0844769,414.847059 C61.0844769,416.66409 59.6369043,418.137084 57.851233,418.137084 L57.851233,418.137084 L45.9075332,418.137084 L45.9075332,416.17289 L57.851233,416.17289 C58.5708319,416.17289 59.154182,415.579295 59.154182,414.847059 C59.154182,414.114822 58.5708319,413.521228 57.851233,413.521228 L57.851233,413.521228 Z M51.8190614,409.2 C53.5381032,409.2 54.9316619,410.618032 54.9316619,412.367263 C54.9316619,413.207274 54.6037282,414.01288 54.0200023,414.606857 C53.4362765,415.200834 52.6445744,415.534527 51.8190614,415.534527 L51.8190614,415.534527 L45.9075332,415.534527 L45.9075332,413.570332 L51.8190614,413.570332 C52.2414585,413.570332 52.6317696,413.341029 52.8429681,412.968798 C53.0541667,412.596567 53.0541667,412.13796 52.8429681,411.765729 C52.6317696,411.393498 52.2414585,411.164194 51.8190614,411.164194 L51.8190614,411.164194 Z" id="风速"></path>
            </g>
        </g>
    </g>
</svg>