<?xml version="1.0" encoding="UTF-8"?>
<svg width="23px" height="21px" viewBox="0 0 23 21" version="1.1" xmlns="http://www.w3.org/2000/svg" xmlns:xlink="http://www.w3.org/1999/xlink">
    <title>实时</title>
    <g id="页面-1" stroke="none" stroke-width="1" fill="none" fill-rule="evenodd">
        <g id="水环境" transform="translate(-828.000000, -496.000000)" fill="#FFFFFF" fill-rule="nonzero">
            <g id="编组-11" transform="translate(783.000000, 55.000000)">
                <g id="编组" transform="translate(56.907533, 451.600000) rotate(-360.000000) translate(-56.907533, -451.600000) translate(45.907533, 441.600000)">
                    <path d="M17.2451613,13.9006452 C17.4019355,13.5870968 17.82,13.4825806 18.1335484,13.6393548 C18.4470968,13.796129 18.5516129,14.2141935 18.3948387,14.5277419 C16.6703226,17.6632258 13.3780645,19.5967742 9.82451613,19.5967742 C4.38967742,19.5967742 0,15.2070968 0,9.82451613 C0,4.38967742 4.38967742,0 9.82451613,0 C14.7890323,0 19.0219355,3.76258065 19.5445161,8.72709677 L20.3806452,7.94322581 C20.6419355,7.68193548 21.06,7.68193548 21.3212903,7.94322581 C21.5825806,8.20451613 21.5825806,8.62258065 21.3212903,8.88387097 L19.44,10.7651613 C19.1787097,11.0264516 18.7606452,11.0264516 18.4993548,10.7651613 L16.6180645,8.88387097 C16.3567742,8.62258065 16.3567742,8.20451613 16.6180645,7.94322581 C16.8793548,7.68193548 17.2974194,7.68193548 17.5587097,7.94322581 L18.1858065,8.57032258 C17.6109677,4.44193548 14.0051613,1.30645161 9.82451613,1.30645161 C5.12129032,1.30645161 1.30645161,5.12129032 1.30645161,9.82451613 C1.30645161,14.4754839 5.12129032,18.2903226 9.82451613,18.2903226 C12.9077419,18.2903226 15.7296774,16.6180645 17.2451613,13.9006452 Z" id="路径"></path>
                    <path d="M9.14516129,4.38967742 C9.14516129,4.02387097 9.45870968,3.71032258 9.82451613,3.71032258 C10.1903226,3.71032258 10.4516129,4.02387097 10.4516129,4.38967742 L10.4516129,9.51096774 L12.5419355,11.6012903 C12.8032258,11.8625806 12.8032258,12.2806452 12.5419355,12.5419355 C12.2806452,12.8032258 11.8625806,12.8032258 11.6012903,12.5419355 L9.35419355,10.2948387 C9.24967742,10.1380645 9.14516129,9.98129032 9.14516129,9.82451613 L9.14516129,4.38967742 Z" id="路径"></path>
                </g>
            </g>
        </g>
    </g>
</svg>