<?xml version="1.0" encoding="UTF-8"?>
<svg width="23px" height="18px" viewBox="0 0 23 18" version="1.1" xmlns="http://www.w3.org/2000/svg" xmlns:xlink="http://www.w3.org/1999/xlink">
    <title>云图</title>
    <g id="页面-1" stroke="none" stroke-width="1" fill="none" fill-rule="evenodd">
        <g id="水环境" transform="translate(-828.000000, -395.000000)" fill="#FFFFFF">
            <g id="编组-11" transform="translate(783.000000, 55.000000)">
                <path d="M50.7075332,357.6 L50.7066083,357.56694 C48.0070834,357.268053 45.9075332,354.979215 45.9075332,352.2 C45.9075332,349.407747 48.0268291,347.110482 50.7446411,346.828985 C50.7199137,346.623941 50.7075332,346.413416 50.7075332,346.2 C50.7075332,343.217662 53.1251956,340.8 56.1075332,340.8 C59.0898709,340.8 61.5075332,343.217662 61.5075332,346.2 C61.5075332,346.415818 61.4948725,346.628679 61.4702534,346.837881 C61.6788542,346.812661 61.8917152,346.8 62.1075332,346.8 C65.0898709,346.8 67.5075332,349.217662 67.5075332,352.2 C67.5075332,354.550806 66.0053756,356.550764 63.9085719,357.292362 L63.9075332,357.6 L50.7075332,357.6 Z" id="云图"></path>
            </g>
        </g>
    </g>
</svg>