<?xml version="1.0" encoding="UTF-8"?>
<svg width="16px" height="15px" viewBox="0 0 16 15" version="1.1" xmlns="http://www.w3.org/2000/svg" xmlns:xlink="http://www.w3.org/1999/xlink">
    <title>走航</title>
    <g id="页面-1" stroke="none" stroke-width="1" fill="none" fill-rule="evenodd">
        <g id="水环境" transform="translate(-830.000000, -533.000000)" fill="#FFFFFF">
            <g id="编组-11" transform="translate(783.000000, 55.000000)">
                <g id="走航" transform="translate(47.000000, 478.000000)">
                    <path d="M2.9382716,0 C2.44444444,0.174418605 2.07407407,0.573089701 1.82716049,1.22093023 C1.20987654,3.01495017 0.641975309,4.78405316 0,6.55315615 L0.024691358,12.782392 L0.024691358,13.7541528 C0.024691358,14.4518272 0.592592593,15 1.25925926,15 C1.95061728,15 2.49382716,14.4518272 2.49382716,13.7541528 L2.49382716,12.807309 L13.5061728,12.807309 L13.5061728,13.7541528 C13.5061728,14.4518272 14.0493827,15 14.7407407,15 C15.4074074,15 15.9753086,14.4518272 15.9753086,13.7541528 L15.9753086,12.782392 L16,6.55315615 C15.3580247,4.78405316 14.7654321,3.01495017 14.1728395,1.22093023 C13.9259259,0.573089701 13.5555556,0.174418605 13.0617284,0 L2.9382716,0 Z M1.77777778,5.58139535 L3.2345679,1.39534884 L12.7407407,1.39534884 L14.2222222,5.58139535 L1.77777778,5.58139535 Z M12.9382716,7.3255814 C12.1728395,7.3255814 11.5308642,7.94850498 11.5308642,8.74584718 C11.5308642,9.51827243 12.1728395,10.166113 12.9382716,10.166113 C13.7283951,10.166113 14.345679,9.51827243 14.345679,8.74584718 C14.345679,7.94850498 13.7283951,7.3255814 12.9382716,7.3255814 Z M3.03703704,7.3255814 C3.82716049,7.3255814 4.44444444,7.94850498 4.44444444,8.74584718 C4.44444444,9.51827243 3.82716049,10.166113 3.03703704,10.166113 C2.27160494,10.166113 1.62962963,9.51827243 1.62962963,8.74584718 C1.62962963,7.94850498 2.27160494,7.3255814 3.03703704,7.3255814 Z" id="形状"></path>
                </g>
            </g>
        </g>
    </g>
</svg>