<?xml version="1.0" encoding="UTF-8"?>
<svg width="28px" height="28px" viewBox="0 0 28 28" version="1.1" xmlns="http://www.w3.org/2000/svg" xmlns:xlink="http://www.w3.org/1999/xlink">
    <!-- Generator: Sketch 61.1 (89650) - https://sketch.com -->
    <title>黑臭1</title>
    <desc>Created with Sketch.</desc>
    <defs>
        <linearGradient x1="50%" y1="0.26099321%" x2="50%" y2="100%" id="linearGradient-1">
            <stop stop-color="#FDBB2E" offset="0.0290329392%"></stop>
            <stop stop-color="#B2201F" offset="62.4234586%"></stop>
            <stop stop-color="#472755" offset="100%"></stop>
        </linearGradient>
        <linearGradient x1="50%" y1="14.5429363%" x2="65.4594858%" y2="85.4570637%" id="linearGradient-2">
            <stop stop-color="#F9D423" offset="0%"></stop>
            <stop stop-color="#B2201F" offset="51.7657306%"></stop>
            <stop stop-color="#1A2A6C" offset="100%"></stop>
        </linearGradient>
    </defs>
    <g id="页面-1" stroke="none" stroke-width="1" fill="none" fill-rule="evenodd">
        <g id="黑臭1" fill-rule="nonzero">
            <path d="M13.95,0.5 C10.2358851,0.5 6.87338506,2.00544253 4.43941379,4.43941379 C2.00544253,6.87338506 0.5,10.2358851 0.5,13.95 C0.5,17.6641149 2.00544253,21.0266149 4.43941379,23.4605862 C6.87338506,25.8945575 10.2358851,27.4 13.95,27.4 C17.6641149,27.4 21.0266149,25.8945575 23.4605862,23.4605862 C25.8945575,21.0266149 27.4,17.6641149 27.4,13.95 C27.4,10.2358851 25.8945575,6.87338506 23.4605862,4.43941379 C21.0266149,2.00544253 17.6641149,0.5 13.95,0.5 Z" id="形状结合" stroke="url(#linearGradient-1)" fill="#FFFFFF"></path>
            <path d="M20.1275597,6 C23.9503712,6 23.9503712,17.4606495 20.1700353,17.4606495 L20.1700353,17.4606495 L11.3462993,17.459793 C11.0528946,18.4732018 10.7605905,19.9866041 10.4693871,22 L10.4693871,22 L4,21.9214267 C5.53670807,17.2602291 6.89782262,14.5327902 8.08334365,13.7391102 C7.9559166,13.1047569 7.91344092,12.4704036 7.91344092,11.7091797 C7.91344092,8.5797034 9.2301871,6 10.8017874,6 L10.8017874,6 L20.1275597,6 Z M10.7593117,7.09954571 C9.4850412,7.09954571 8.4656248,9.17176648 8.4656248,11.7091797 C8.4656248,12.343533 8.55057617,12.935596 8.59305185,13.4007884 C12.3733877,11.6668894 13.0954743,15.7267505 13.0954743,11.7091797 C13.0954743,9.93299043 12.3733877,7.09954571 10.7593117,7.09954571 Z" id="形状结合" fill="url(#linearGradient-2)"></path>
        </g>
    </g>
</svg>