<?xml version="1.0" encoding="UTF-8"?>
<svg width="28px" height="28px" viewBox="0 0 28 28" version="1.1" xmlns="http://www.w3.org/2000/svg" xmlns:xlink="http://www.w3.org/1999/xlink">
    <!-- Generator: Sketch 61.1 (89650) - https://sketch.com -->
    <title>畜牧1</title>
    <desc>Created with Sketch.</desc>
    <defs>
        <circle id="path-1" cx="14" cy="14" r="14"></circle>
        <linearGradient x1="50%" y1="0%" x2="50%" y2="97.6324958%" id="linearGradient-3">
            <stop stop-color="#EAAFC8" offset="0%"></stop>
            <stop stop-color="#654EA3" offset="100%"></stop>
        </linearGradient>
    </defs>
    <g id="页面-1" stroke="none" stroke-width="1" fill="none" fill-rule="evenodd">
        <g id="畜牧1">
            <circle id="蒙版" stroke="#A079B5" fill="#FFFFFF" fill-rule="nonzero" cx="14" cy="14" r="13.5"></circle>
            <g id="Clipped">
                <mask id="mask-2" fill="white">
                    <use xlink:href="#path-1"></use>
                </mask>
                <g id="path-1"></g>
                <path d="M25.0810413,3.48872507 C25.1002988,3.73739499 25.11,3.98925792 25.11,4.2433886 C25.11,7.58702528 23.4306154,10.538089 20.8699992,12.297752 L18.9813937,20.6095762 C18.8851619,21.0329938 18.5087359,21.3334673 18.0745205,21.3334673 L16.6968702,21.3337126 C16.4995001,22.6808045 15.340095,23.715 13.9393445,23.715 C12.5385941,23.715 11.379189,22.6808045 11.1818189,21.3337126 L9.80416862,21.3334673 C9.36995318,21.3334673 8.99352722,21.0329938 8.89729534,20.6095762 L6.85461401,11.6224293 C4.79201459,9.83228687 3.4875,7.19030939 3.4875,4.2433886 C3.4875,3.98925792 3.49720122,3.73739499 3.51645872,3.48872507 C3.73915028,5.938017 5.22721574,8.02141909 7.32095576,9.07867426 L7.23363114,9.09317303 C7.30125691,9.07780344 7.37038965,9.07004631 7.43973999,9.07004631 L21.2925399,9.07057115 C23.3778606,8.01079776 24.8589172,5.93177507 25.0810413,3.48872507 Z M15.2724132,21.3332864 L12.6062759,21.3332864 C12.780545,21.9046346 13.3114505,22.3202425 13.9393445,22.3202425 C14.5672385,22.3202425 15.0981441,21.9046346 15.2724132,21.3332864 Z" id="形状" fill="url(#linearGradient-3)" fill-rule="nonzero" mask="url(#mask-2)"></path>
            </g>
        </g>
    </g>
</svg>