<?xml version="1.0" encoding="UTF-8"?>
<svg width="29px" height="29px" viewBox="0 0 29 29" version="1.1" xmlns="http://www.w3.org/2000/svg" xmlns:xlink="http://www.w3.org/1999/xlink">
    <!-- Generator: Sketch 63 (92445) - https://sketch.com -->
    <title>浮船站4</title>
    <desc>Created with Sketch.</desc>
    <g id="页面-1" stroke="none" stroke-width="1" fill="none" fill-rule="evenodd">
        <g id="长春市生态环境智慧监管平台-切图" transform="translate(-992.000000, -294.000000)" fill-rule="nonzero">
            <g id="浮船站4" transform="translate(993.000000, 295.000000)">
                <circle id="椭圆形备份" stroke="#33B7F5" fill="#FFFFFF" cx="13.5" cy="13.5" r="13.5"></circle>
                <path d="M19.9315316,18.0803244 C19.9248281,18.0881228 19.3617371,18.7556681 18.2690724,18.9053979 L20.3806637,13.9409197 C20.4409948,13.800548 20.4359672,13.6430198 20.3672567,13.5057675 C20.3002221,13.3685152 20.1745321,13.2640163 20.0203525,13.2141064 L13.819648,11.2411045 C13.8028893,11.2364255 13.7861307,11.2348658 13.769372,11.2317464 C13.7459099,11.2255077 13.7207719,11.2192689 13.6973098,11.2177092 C13.6738477,11.2145899 13.6503855,11.2161496 13.6269234,11.2161496 C13.6034613,11.2161496 13.581675,11.2161496 13.5582129,11.2177092 C13.5330749,11.2208286 13.5096128,11.2270674 13.4844748,11.2317464 C13.4677161,11.2348658 13.4509575,11.2364255 13.4358747,11.2411045 L7.23517021,13.2141064 C7.08099054,13.2624566 6.95697645,13.3685152 6.88826594,13.5057675 C6.81955543,13.6430198 6.8162037,13.800548 6.87485901,13.9409197 L8.89260176,18.6839226 C7.75971629,18.5139169 7.03741802,17.8572894 7.01730763,17.8370135 C6.78771397,17.6202172 6.41399584,17.6155382 6.17937459,17.8276554 C5.94475334,18.0397726 5.93972574,18.3907017 6.16764353,18.6090577 C6.21959538,18.6574079 7.44297761,19.8068959 9.37525118,19.8271719 C10.3321707,19.8396493 11.0662,19.6556065 11.7097326,19.4949589 C12.2761753,19.3530275 12.7638524,19.2313721 13.3219158,19.2610061 C13.9704759,19.2953192 14.5637325,19.449728 15.1921823,19.6150547 C15.9882187,19.8224928 16.8110689,20.039289 17.8299955,20.039289 C19.8226003,20.039289 20.8415268,18.7915408 20.8850993,18.7385115 C21.0778239,18.4952006 21.0225204,18.1489505 20.7610853,17.9664673 C20.4979743,17.7839842 20.1276079,17.8354538 19.9315316,18.0803244 Z M10.4117647,7.56029745 C10.4117647,7.14369013 10.6858531,6.80399493 11.0219993,6.80399493 L11.0219993,6.80399493 L15.9780007,6.80399493 C16.3141469,6.80399493 16.5882353,7.14369013 16.5882353,7.56029745 L16.5882353,7.56029745 L16.5882353,8.56870081 L17.7836152,8.56870081 C18.097227,8.56870081 18.3529412,8.78632354 18.3529412,9.05321934 L18.3529412,9.05321934 L18.3529412,11.9176332 L13.6841464,10.5598864 C13.6680637,10.5557803 13.6519811,10.5544116 13.6358984,10.5516742 C13.6133827,10.5475681 13.590867,10.5420933 13.566743,10.5393559 C13.5442273,10.5366185 13.5217116,10.5379872 13.4991959,10.5379872 L13.4662264,10.537645 L13.4662264,10.537645 L13.433257,10.5393559 C13.409133,10.5407246 13.3866173,10.5461994 13.3624933,10.5516742 C13.3480189,10.5557803 13.3319363,10.5557803 13.3158536,10.5598864 L13.3158536,10.5598864 L8.64705882,11.9176332 L8.64705882,9.05321934 C8.64705882,8.78632354 8.90277304,8.56870081 9.21638481,8.56870081 L9.21638481,8.56870081 L10.4117647,8.56870081 Z" id="形状" fill="#33B7F5"></path>
            </g>
        </g>
    </g>
</svg>