<?xml version="1.0" encoding="UTF-8"?>
<svg width="64px" height="75px" viewBox="0 0 64 75" version="1.1" xmlns="http://www.w3.org/2000/svg" xmlns:xlink="http://www.w3.org/1999/xlink">
    <title>填埋场</title>
    <defs>
        <linearGradient x1="50%" y1="0%" x2="50%" y2="99.0685096%" id="linearGradient-1">
            <stop stop-color="#00467F" offset="0%"></stop>
            <stop stop-color="#A5CC82" offset="100%"></stop>
        </linearGradient>
        <linearGradient x1="50%" y1="0%" x2="50%" y2="99.0685096%" id="linearGradient-2">
            <stop stop-color="#192656" offset="0%"></stop>
            <stop stop-color="#1C481D" offset="100%"></stop>
        </linearGradient>
        <linearGradient x1="50%" y1="0%" x2="50%" y2="99.0685096%" id="linearGradient-3">
            <stop stop-color="#283C86" stop-opacity="0.7" offset="0%"></stop>
            <stop stop-color="#45A247" stop-opacity="0.7" offset="100%"></stop>
        </linearGradient>
        <linearGradient x1="50%" y1="0%" x2="50%" y2="99.0685096%" id="linearGradient-4">
            <stop stop-color="#283C86" stop-opacity="0.3" offset="0%"></stop>
            <stop stop-color="#45A247" stop-opacity="0.3" offset="100%"></stop>
        </linearGradient>
    </defs>
    <g id="页面-1" stroke="none" stroke-width="1" fill="none" fill-rule="evenodd">
        <g id="图标" transform="translate(-3491.000000, -507.000000)" fill-rule="nonzero">
            <g id="填埋场" transform="translate(3491.000000, 507.000000)">
                <g id="dianwei-zhifarenyuan备份">
                    <path d="M31.871345,0 C49.4635809,0 63.7240264,14.2715939 63.7240264,31.8781635 C63.7240264,47.3665298 52.6870723,60.2748289 38.0539505,63.1559039 L31.871345,71.525196 L25.6919249,63.1543113 C11.0556178,60.2764216 0.0186636696,47.3665298 0.0186636696,31.8765708 C0.0186636696,14.2731865 14.2791091,0 31.871345,0 Z" id="路径" fill="url(#linearGradient-1)"></path>
                    <path d="M31.871345,0 C49.4635809,0 63.7240264,14.2715939 63.7240264,31.8781635 C63.7240264,47.3665298 52.6870723,60.2748289 38.0539505,63.1559039 L31.871345,71.525196 L25.6919249,63.1543113 C11.0556178,60.2764216 0.0186636696,47.3665298 0.0186636696,31.8765708 C0.0186636696,14.2731865 14.2791091,0 31.871345,0 Z M31.871345,1.59263406 C15.1598357,1.59263406 1.61129773,15.1507279 1.61129773,31.8781635 C1.61129773,46.2230186 11.6512629,58.4958567 25.4450666,61.4788603 L25.9977106,61.5935299 L26.6045042,61.7129775 L31.871345,68.8447928 L37.1397785,61.7129775 L37.7449795,61.5935299 C51.8254572,58.8223466 62.1313923,46.4141346 62.1313923,31.8781635 C62.1313923,15.1507279 48.5828543,1.59263406 31.871345,1.59263406 Z" id="形状" fill="url(#linearGradient-2)"></path>
                    <path d="M31.871345,66.8906308 C38.9076023,66.8906308 44.6124175,68.674381 44.6124175,70.872216 C44.6124175,73.070051 38.9076023,74.8538012 31.871345,74.8538012 C24.8350877,74.8538012 19.1302725,73.070051 19.1302725,70.872216 C19.1302725,68.72216 24.577081,66.9718552 31.3935548,66.8938161 L31.871345,66.8906308 Z M31.871345,67.6869479 C25.2889885,67.6869479 19.9265895,69.3623989 19.9265895,70.872216 C19.9265895,72.3820331 25.2889885,74.0574841 31.871345,74.0574841 C38.4537016,74.0574841 43.8161005,72.3820331 43.8161005,70.872216 C43.8161005,69.3990295 38.7117083,67.7681722 32.3507279,67.6901331 L31.871345,67.6869479 Z" id="形状" fill="url(#linearGradient-3)"></path>
                    <path d="M19.1302725,70.872216 C19.1302725,73.0711848 24.834645,74.8538012 31.871345,74.8538012 C38.9080451,74.8538012 44.6124175,73.0711848 44.6124175,70.872216 C44.6124175,68.6732472 38.9080451,66.8906308 31.871345,66.8906308 C24.834645,66.8906308 19.1302725,68.6732472 19.1302725,70.872216 Z" id="路径" fill="url(#linearGradient-4)"></path>
                </g>
                <g id="shenghuolajitianmaichang备份-2" transform="translate(16.000000, 15.000000)" fill="#FFFFFF">
                    <path d="M8.38532632,15.7473474 C8.9748,20.4900842 12.1175368,24.0471368 16.0451158,24.0471368 C19.9726947,24.0471368 23.1147579,20.4900842 23.7035579,15.7473474 L23.9002737,14.1668842 L18.4003158,14.1668842 L18.4003158,3.69311579 L20.7575368,3.69311579 L20.7575368,0.333452632 L11.3313474,0.333452632 L11.3313474,3.69311579 L13.6878947,3.69311579 L13.6878947,14.1668842 L8.18928421,14.1668842 L8.38532632,15.7473474 Z M28.2206105,6.26187125 L26.4528632,6.26187125 C25.982048,6.26132086 25.5305248,6.44889193 25.1986851,6.78288233 C24.8668454,7.11687272 24.6821951,7.56959829 24.6857895,8.0404 C24.6821951,8.51120171 24.8668454,8.96392728 25.1986851,9.29791767 C25.5305248,9.63190807 25.982048,9.81947914 26.4528632,9.81892632 C27.4350947,9.81892632 29.7916421,9.22608421 29.7916421,10.2143789 L29.7916421,24.0471368 C29.7916421,24.8380421 28.8100842,26.0237263 27.8278526,26.0237263 L23.9002737,26.0237263 C22.3292421,26.0237263 21.3470105,28.7898737 16.0451158,28.7898737 C10.7418737,28.7898737 9.95635789,26.0237263 8.18928421,26.0237263 L4.26170526,26.0237263 C3.27947368,26.0237263 2.29724211,25.0354316 2.29724211,24.0471368 L2.29724211,10.2150526 C2.29724211,9.22675789 4.65446316,9.8196 5.63602105,9.8196 C6.22549474,9.8196 6.81496842,9.42482105 7.20705263,9.02936842 C7.59981053,8.43652632 7.59981053,7.84368421 7.20705263,7.25084211 C6.81429474,6.658 6.22549474,6.26254737 5.63602105,6.26254737 L3.86894737,6.26254737 C2.88671579,6.26254737 2.1012,6.658 1.31568421,7.25084211 C0.726210526,8.04107368 0.333452632,8.83197895 0.333452632,9.8196 L0.333452632,28.5931579 C0.333452632,29.5814526 0.726210526,30.3716842 1.31568421,31.1619158 C2.1012,31.5573684 2.88671579,31.9528211 3.86894737,31.9528211 L28.4173263,31.9528211 C29.3988842,31.9528211 30.1844,31.5573684 30.9705895,30.9645263 C31.5593895,30.3716842 31.9521474,29.3833895 31.9521474,28.3957684 L31.9521474,9.81892632 C31.7554316,8.83130526 31.3626737,7.84301053 30.7732,7.25016842 C29.9883579,6.65732632 29.2028421,6.26187125 28.2206105,6.26187125 Z" id="形状"></path>
                </g>
            </g>
        </g>
    </g>
</svg>