<?xml version="1.0" encoding="UTF-8"?>
<svg width="29px" height="29px" viewBox="0 0 29 29" version="1.1" xmlns="http://www.w3.org/2000/svg" xmlns:xlink="http://www.w3.org/1999/xlink">
    <!-- Generator: Sketch 63 (92445) - https://sketch.com -->
    <title>固定站1</title>
    <desc>Created with Sketch.</desc>
    <g id="页面-1" stroke="none" stroke-width="1" fill="none" fill-rule="evenodd">
        <g id="长春市生态环境智慧监管平台-切图" transform="translate(-821.000000, -259.000000)" fill-rule="nonzero">
            <g id="固定站1" transform="translate(822.000000, 260.000000)">
                <circle id="椭圆形备份" stroke="#617D9E" fill="#FFFFFF" cx="13.5" cy="13.5" r="13.5"></circle>
                <g id="编组" transform="translate(6.000000, 6.000000)" fill="#617D9E">
                    <path d="M14.8946713,5.65130418 C14.7754338,5.87095509 14.5542169,6.05138263 14.1510059,6.05138263 C14.1117831,6.05138263 14.0709913,6.04981369 14.0286306,6.04667582 L13.0072673,6.04667582 C12.8597894,6.04667582 12.720156,6.11100216 12.6244522,6.22396548 L9.57448273,9.81055108 C9.29207816,10.1415964 9.12577323,10.5557953 9.09910169,10.9903903 L8.99398443,12.736615 C8.97829528,12.9813689 8.88416042,13.2167092 8.71628658,13.3955678 C8.60018691,13.5195136 8.4448644,13.6246323 8.24090555,13.6434595 C8.22050966,13.6450284 8.20011377,13.6465974 8.18128679,13.6465974 C8.00086163,13.6465974 7.82828106,13.5712885 7.69963009,13.4426358 L5.38077468,11.0923711 L0.0470674215,14.9639145 L0,15 L0.0360850315,14.9529319 L3.90756409,9.619141 L1.56203714,7.30339282 C1.4161281,7.15748185 1.33925131,6.95979603 1.35807827,6.75897234 C1.37690524,6.55657971 1.48359142,6.39968621 1.60596673,6.28358502 C1.78482297,6.11570897 2.02016013,6.02000393 2.26491077,6.00588351 L4.01111244,5.90076485 C4.44570172,5.87409296 4.8598951,5.70778584 5.19093603,5.42537752 L8.77590533,2.37536771 C8.88886717,2.27966267 8.95319265,2.14002745 8.95319265,1.99254756 L8.95319265,0.971170822 C8.91396979,0.489507758 9.10694625,0.2369092 9.34855907,0.105118653 C9.47877896,0.0345165725 9.62155017,0 9.76275247,0 C9.99495179,0 10.2255822,0.0925671667 10.3965939,0.263581093 L10.3981628,0.265150029 L12.5522822,2.43498724 L12.5632646,2.44596979 L14.7330731,4.6016866 C15.0123399,4.88095705 15.082941,5.30770739 14.8946713,5.65130418 Z" id="路径"></path>
                </g>
            </g>
        </g>
    </g>
</svg>