<?xml version="1.0" encoding="UTF-8"?>
<svg width="29px" height="29px" viewBox="0 0 29 29" version="1.1" xmlns="http://www.w3.org/2000/svg" xmlns:xlink="http://www.w3.org/1999/xlink">
    <!-- Generator: Sketch 63 (92445) - https://sketch.com -->
    <title>黑臭水体5</title>
    <desc>Created with Sketch.</desc>
    <g id="页面-1" stroke="none" stroke-width="1" fill="none" fill-rule="evenodd">
        <g id="长春市生态环境智慧监管平台-切图" transform="translate(-1048.000000, -329.000000)">
            <g id="黑臭水体5" transform="translate(1049.000000, 330.000000)">
                <circle id="椭圆形备份" stroke="#F8CC10" fill="#FFFFFF" fill-rule="nonzero" cx="13.5" cy="13.5" r="13.5"></circle>
                <g id="编组-4" transform="translate(5.000000, 8.000000)">
                    <ellipse id="椭圆形" fill="#F8CC10" cx="14.2792524" cy="4.98666667" rx="2.72" ry="4.98666667"></ellipse>
                    <ellipse id="椭圆形备份-9" stroke="#F8CC10" cx="5.21258575" cy="4.98666667" rx="2.22" ry="4.48666667"></ellipse>
                    <path d="M14.2792524,9.97333333 L5.54847214,9.97333333 C6.88115546,8.29514474 7.54749713,6.62727401 7.54749713,4.96972114 C7.54749713,3.31216827 6.88115546,1.65559456 5.54847214,0 L14.2792524,0 L14.2792524,9.97333333 Z" id="路径-2" fill="#F8CC10"></path>
                    <path d="M5.84631432,8.60705468 L5.15181139,11.9994472 L0.000543529613,11.9994472 C-0.0340486365,10.7038524 0.626468557,9.19701935 1.98209511,7.47894816 C4.01553494,4.90184138 4.75899074,5.21102539 5.5523895,5.21102539 C6.34578825,5.21102539 7.93258575,6.34315709 7.93258575,6.80259057 C7.93258575,7.10887956 7.23716194,7.71036759 5.84631432,8.60705468 Z" id="路径-3" fill="#F8CC10"></path>
                </g>
            </g>
        </g>
    </g>
</svg>