<?xml version="1.0" encoding="UTF-8"?>
<svg width="28px" height="28px" viewBox="0 0 28 28" version="1.1" xmlns="http://www.w3.org/2000/svg" xmlns:xlink="http://www.w3.org/1999/xlink">
    <!-- Generator: Sketch 61.1 (89650) - https://sketch.com -->
    <title>涉水企业1</title>
    <desc>Created with Sketch.</desc>
    <defs>
        <linearGradient x1="50%" y1="0%" x2="50%" y2="100%" id="linearGradient-1">
            <stop stop-color="#ADE06A" offset="0%"></stop>
            <stop stop-color="#3DC256" offset="100%"></stop>
        </linearGradient>
    </defs>
    <g id="页面-1" stroke="none" stroke-width="1" fill="none" fill-rule="evenodd">
        <g id="涉水企业1" fill-rule="nonzero">
            <circle id="椭圆形" stroke="#89C862" fill="#FFFFFF" cx="14" cy="14" r="13.5"></circle>
            <path d="M12.833692,9.416 L14.8512966,19.8179355 C14.9490866,20.3221652 14.6196021,20.8101986 14.1153724,20.9079886 C14.0570301,20.9193035 13.9977374,20.925 13.938308,20.925 L5.77769201,20.925 C5.26406719,20.925 4.84769201,20.5086248 4.84769201,19.995 C4.84769201,19.9355706 4.85338852,19.8762779 4.86470341,19.8179355 L6.88169201,9.416 L12.833692,9.416 Z M21.2078946,10.695 C21.6687641,10.695 22.0601189,11.0325352 22.1278089,11.4884067 L23.3706271,19.8584067 C23.4460655,20.3664613 23.0953607,20.8394759 22.5873061,20.9149143 C22.5420848,20.9216289 22.4964299,20.925 22.4507128,20.925 L16.9917191,20.925 C16.5401272,20.925 16.1538021,20.6005826 16.0757246,20.1557915 L14.6064749,11.7857915 C14.5176722,11.2799016 14.8557882,10.7978081 15.361678,10.7090054 C15.414768,10.6996861 15.4685678,10.695 15.5224695,10.695 L21.2078946,10.695 Z M11.3230353,5.58 C11.7683895,5.58 12.151232,5.89572769 12.2360239,6.33293554 L12.653692,8.486 L7.06169201,8.486 L7.47997614,6.33293554 C7.56476796,5.89572769 7.94761054,5.58 8.39296473,5.58 L11.3230353,5.58 Z" id="形状结合备份-22" fill="url(#linearGradient-1)"></path>
        </g>
    </g>
</svg>