<?xml version="1.0" encoding="UTF-8"?>
<svg width="64px" height="75px" viewBox="0 0 64 75" version="1.1" xmlns="http://www.w3.org/2000/svg" xmlns:xlink="http://www.w3.org/1999/xlink">
    <title>入河口</title>
    <defs>
        <linearGradient x1="50%" y1="0%" x2="50%" y2="100%" id="linearGradient-1">
            <stop stop-color="#CCCCB2" offset="0%"></stop>
            <stop stop-color="#757519" offset="100%"></stop>
        </linearGradient>
        <linearGradient x1="50%" y1="0%" x2="50%" y2="100%" id="linearGradient-2">
            <stop stop-color="#82826E" offset="0%"></stop>
            <stop stop-color="#515110" offset="100%"></stop>
        </linearGradient>
        <linearGradient x1="50%" y1="0%" x2="50%" y2="100%" id="linearGradient-3">
            <stop stop-color="#757519" stop-opacity="0.7" offset="0%"></stop>
            <stop stop-color="#CCCCB2" stop-opacity="0.7" offset="100%"></stop>
        </linearGradient>
        <linearGradient x1="50%" y1="0%" x2="50%" y2="100%" id="linearGradient-4">
            <stop stop-color="#CCCCB2" stop-opacity="0.3" offset="0%"></stop>
            <stop stop-color="#757519" stop-opacity="0.3" offset="100%"></stop>
        </linearGradient>
    </defs>
    <g id="页面-1" stroke="none" stroke-width="1" fill="none" fill-rule="evenodd">
        <g id="图标" transform="translate(-3491.000000, -722.000000)" fill-rule="nonzero">
            <g id="入河口" transform="translate(3491.000000, 722.000000)">
                <g id="dianwei-zhifarenyuan备份-4">
                    <path d="M31.871345,0 C49.4635809,0 63.7240264,14.2715939 63.7240264,31.8781635 C63.7240264,47.3665298 52.6870723,60.2748289 38.0539505,63.1559039 L31.871345,71.525196 L25.6919249,63.1543113 C11.0556178,60.2764216 0.0186636696,47.3665298 0.0186636696,31.8765708 C0.0186636696,14.2731865 14.2791091,0 31.871345,0 Z" id="路径" fill="url(#linearGradient-1)"></path>
                    <path d="M31.871345,0 C49.4635809,0 63.7240264,14.2715939 63.7240264,31.8781635 C63.7240264,47.3665298 52.6870723,60.2748289 38.0539505,63.1559039 L31.871345,71.525196 L25.6919249,63.1543113 C11.0556178,60.2764216 0.0186636696,47.3665298 0.0186636696,31.8765708 C0.0186636696,14.2731865 14.2791091,0 31.871345,0 Z M31.871345,1.59263406 C15.1598357,1.59263406 1.61129773,15.1507279 1.61129773,31.8781635 C1.61129773,46.2230186 11.6512629,58.4958567 25.4450666,61.4788603 L25.9977106,61.5935299 L26.6045042,61.7129775 L31.871345,68.8447928 L37.1397785,61.7129775 L37.7449795,61.5935299 C51.8254572,58.8223466 62.1313923,46.4141346 62.1313923,31.8781635 C62.1313923,15.1507279 48.5828543,1.59263406 31.871345,1.59263406 Z" id="形状" fill="url(#linearGradient-2)"></path>
                    <path d="M31.871345,66.8906308 C38.9076023,66.8906308 44.6124175,68.674381 44.6124175,70.872216 C44.6124175,73.070051 38.9076023,74.8538012 31.871345,74.8538012 C24.8350877,74.8538012 19.1302725,73.070051 19.1302725,70.872216 C19.1302725,68.72216 24.577081,66.9718552 31.3935548,66.8938161 L31.871345,66.8906308 Z M31.871345,67.6869479 C25.2889885,67.6869479 19.9265895,69.3623989 19.9265895,70.872216 C19.9265895,72.3820331 25.2889885,74.0574841 31.871345,74.0574841 C38.4537016,74.0574841 43.8161005,72.3820331 43.8161005,70.872216 C43.8161005,69.3990295 38.7117083,67.7681722 32.3507279,67.6901331 L31.871345,67.6869479 Z" id="形状" fill="url(#linearGradient-3)"></path>
                    <path d="M19.1302725,70.872216 C19.1302725,73.0711848 24.834645,74.8538012 31.871345,74.8538012 C38.9080451,74.8538012 44.6124175,73.0711848 44.6124175,70.872216 C44.6124175,68.6732472 38.9080451,66.8906308 31.871345,66.8906308 C24.834645,66.8906308 19.1302725,68.6732472 19.1302725,70.872216 Z" id="路径" fill="url(#linearGradient-4)"></path>
                </g>
                <g id="noun_drainage_2388954备份-2" transform="translate(12.000000, 16.000000)" fill="#FFFFFF">
                    <path d="M22.5,30 C18.9882143,30 17.8560714,27.8571429 15,27.8571429 C12.145,27.8571429 11.0110714,30 7.5,30 C3.99678571,30 2.87857143,27.8571429 0,27.8571429 L0,25.7142857 C3.54535714,25.7142857 4.64714286,27.8571429 7.5,27.8571429 C10.3525,27.8571429 11.4885714,25.7142857 15,25.7142857 C18.5139286,25.7142857 19.6453571,27.8571429 22.5,27.8571429 C25.3382143,27.8571429 26.4689286,25.7142857 30,25.7142857 L30,27.8571429 C27.1235714,27.8571429 26.0007143,30 22.5,30 Z" id="路径" transform="translate(15.000000, 27.857143) scale(-1, 1) translate(-15.000000, -27.857143) "></path>
                    <path d="M30,1.07142857 L30,13.9285714 C30,14.5203571 29.5203571,15 28.9285714,15 L21.4285714,15 L21.4285714,0 L28.9285714,0 C29.5203571,0 30,0.479642857 30,1.07142857 Z" id="路径" transform="translate(25.714286, 7.500000) scale(-1, 1) translate(-25.714286, -7.500000) "></path>
                    <path d="M30,19.2857143 C26.4546429,19.2857143 25.3528571,21.4285714 22.5,21.4285714 C22.1060714,21.4285714 21.7585714,21.3828571 21.4285714,21.3171429 L21.4285714,12.8571429 C21.4285714,7.54035714 17.1025,3.21428571 11.7857143,3.21428571 L10.7142857,3.21428571 L10.7142857,12.8571429 L11.7857143,12.8571429 C12.3764286,12.8571429 12.8571429,13.3378571 12.8571429,13.9285714 L12.8571429,19.6064286 C10.6546429,20.2582143 9.69607143,21.4285714 7.5,21.4285714 C4.66178571,21.4285714 3.53107143,19.2857143 0,19.2857143 L0,21.4285714 C2.87642857,21.4285714 3.99928571,23.5714286 7.5,23.5714286 C11.0117857,23.5714286 12.1439286,21.4285714 15,21.4285714 C17.855,21.4285714 18.9889286,23.5714286 22.5,23.5714286 C26.0032143,23.5714286 27.1214286,21.4285714 30,21.4285714 L30,19.2857143 Z" id="形状" transform="translate(15.000000, 13.392857) scale(-1, 1) translate(-15.000000, -13.392857) "></path>
                </g>
            </g>
        </g>
    </g>
</svg>