<?xml version="1.0" encoding="UTF-8"?>
<svg width="28px" height="28px" viewBox="0 0 28 28" version="1.1" xmlns="http://www.w3.org/2000/svg" xmlns:xlink="http://www.w3.org/1999/xlink">
    <!-- Generator: Sketch 61.1 (89650) - https://sketch.com -->
    <title>视频1</title>
    <desc>Created with Sketch.</desc>
    <defs>
        <linearGradient x1="35.0065743%" y1="100%" x2="35.0065743%" y2="0%" id="linearGradient-1">
            <stop stop-color="#743012" offset="0%"></stop>
            <stop stop-color="#EF3B3B" offset="100%"></stop>
        </linearGradient>
        <linearGradient x1="35.0065743%" y1="99.0313556%" x2="35.0065743%" y2="0%" id="linearGradient-2">
            <stop stop-color="#8B1FFF" offset="0%"></stop>
            <stop stop-color="#F76245" offset="100%"></stop>
        </linearGradient>
    </defs>
    <g id="页面-1" stroke="none" stroke-width="1" fill="none" fill-rule="evenodd">
        <g id="视频1" fill-rule="nonzero">
            <path d="M14,0.5 C10.2720779,0.5 6.89707794,2.01103897 4.45405845,4.45405845 C2.01103897,6.89707794 0.5,10.2720779 0.5,14 C0.5,17.7279221 2.01103897,21.1029221 4.45405845,23.5459415 C6.89707794,25.988961 10.2720779,27.5 14,27.5 C17.7279221,27.5 21.1029221,25.988961 23.5459415,23.5459415 C25.988961,21.1029221 27.5,17.7279221 27.5,14 C27.5,10.2720779 25.988961,6.89707794 23.5459415,4.45405845 C21.1029221,2.01103897 17.7279221,0.5 14,0.5 Z" id="形状结合" stroke="#B03A3A" fill="#FFFFFF"></path>
            <g id="编组" transform="translate(6.000000, 6.000000)" fill="url(#linearGradient-2)">
                <g id="编组-2">
                    <path d="M1.74845189,5.60730683 C8.40328362,9.60079672 11.9209849,11.724425 12.3015558,11.9781917 C12.3660525,11.9781917 14.1220994,11.0766178 14.1220994,11.0766178 L14.1220994,11.0766178 L12.7702041,13.0363561 C12.636694,13.2298955 12.3755432,13.2859647 12.1743554,13.1642852 L12.1743554,13.1642852 L5.64089178,9.213 L5.64172972,11.0275718 C5.64172972,11.8563398 5.00720544,12.5369068 4.19746211,12.6099674 L4.05284083,12.6164607 L2.05889178,12.616 L2.05889178,14.4206563 C2.05889178,14.8072556 1.7454911,15.1206563 1.35889178,15.1206563 C0.972292454,15.1206563 0.658891779,14.8072556 0.658891779,14.4206563 L0.658891779,8.7095452 C0.658891779,8.32294587 0.972292454,8.0095452 1.35889178,8.0095452 C1.7454911,8.0095452 2.05889178,8.32294587 2.05889178,8.7095452 L2.05889178,11.216 L4.05284083,11.2164607 C4.13977454,11.2164607 4.21299157,11.1577326 4.23498243,11.077786 L4.24172972,11.0275718 L4.24089178,8.366 L1.16965794,6.50858527 L1.74845189,5.60730683 Z M3.32090434,0.200139121 C3.45241903,0.000333930775 3.71848244,-0.0595431949 3.92291418,0.06465781 L3.92291418,0.06465781 L16.3903172,7.6391369 C16.4483634,7.67440244 16.497555,7.72250243 16.5341141,7.77974276 C16.6662384,7.98660917 16.605648,8.26141548 16.3987816,8.39353984 L16.3987816,8.39353984 L12.8500917,10.6600673 C12.7874551,10.7000728 12.7157862,10.7237319 12.6416426,10.7288796 L12.6416426,10.7288796 L11.9955731,10.7737356 C11.9057721,10.7799704 11.8161947,10.7587898 11.7386956,10.712997 L11.7386956,10.712997 L1.38800815,4.59696215 C1.25268288,4.51700088 1.16965794,4.37150735 1.16965794,4.2143236 L1.16965794,4.2143236 L1.16965794,3.60158781 C1.16965794,3.51473252 1.19510714,3.42978067 1.24286043,3.35723094 L1.24286043,3.35723094 L3.32090434,0.200139121 Z" id="形状结合"></path>
                </g>
            </g>
        </g>
    </g>
</svg>