<?xml version="1.0" encoding="UTF-8"?>
<svg width="40px" height="48px" viewBox="0 0 40 48" version="1.1" xmlns="http://www.w3.org/2000/svg" xmlns:xlink="http://www.w3.org/1999/xlink">
    <title>水源地1</title>
    <defs>
        <filter id="filter-1">
            <feColorMatrix in="SourceGraphic" type="matrix" values="0 0 0 0 1.000000 0 0 0 0 1.000000 0 0 0 0 1.000000 0 0 0 1.000000 0"></feColorMatrix>
        </filter>
        <filter x="-21.7%" y="-33.3%" width="143.3%" height="169.2%" filterUnits="objectBoundingBox" id="filter-2">
            <feOffset dx="0" dy="1" in="SourceAlpha" result="shadowOffsetOuter1"></feOffset>
            <feGaussianBlur stdDeviation="1" in="shadowOffsetOuter1" result="shadowBlurOuter1"></feGaussianBlur>
            <feColorMatrix values="0 0 0 0 0   0 0 0 0 0   0 0 0 0 0  0 0 0 0.5 0" type="matrix" in="shadowBlurOuter1" result="shadowMatrixOuter1"></feColorMatrix>
            <feMerge>
                <feMergeNode in="shadowMatrixOuter1"></feMergeNode>
                <feMergeNode in="SourceGraphic"></feMergeNode>
            </feMerge>
        </filter>
    </defs>
    <g id="页面-1" stroke="none" stroke-width="1" fill="none" fill-rule="evenodd">
        <g id="沁水PC端图标" transform="translate(-271.000000, -493.000000)">
            <g id="水源地1" transform="translate(271.000000, 493.000000)">
                <g id="国5备份-21" fill-rule="nonzero">
                    <g id="dianwei-zhifarenyuan">
                        <path d="M19.9195906,41.8066443 C24.3172515,41.8066443 27.882761,42.9214881 27.882761,44.295135 C27.882761,45.6687819 24.3172515,46.7836257 19.9195906,46.7836257 C15.5219298,46.7836257 11.9564203,45.6687819 11.9564203,44.295135 C11.9564203,42.95135 15.3606756,41.8574095 19.6209718,41.8086351 L19.9195906,41.8066443 Z M19.9195906,42.3043424 C15.8056178,42.3043424 12.4541185,43.3514993 12.4541185,44.295135 C12.4541185,45.2387707 15.8056178,46.2859276 19.9195906,46.2859276 C24.0335635,46.2859276 27.3850628,45.2387707 27.3850628,44.295135 C27.3850628,43.3743935 24.1948177,42.3551076 20.2192049,42.3063332 L19.9195906,42.3043424 Z" id="形状" fill-opacity="0.7" fill="#8B2293"></path>
                        <path d="M11.9564203,44.295135 C11.9564203,45.6694905 15.5216531,46.7836257 19.9195906,46.7836257 C21.3926138,46.7836257 22.772223,46.6586404 23.9557475,46.4407544 C26.3058177,46.0081081 27.882761,45.2091707 27.882761,44.295135 C27.882761,43.3761805 26.2887998,42.5735665 23.9177408,42.1425628 C22.7427287,41.9289728 21.3768738,41.8066443 19.9195906,41.8066443 C15.5216531,41.8066443 11.9564203,42.9207795 11.9564203,44.295135 Z" id="路径" stroke="#4AADD6" fill-opacity="0.3" fill="#58CCFC"></path>
                        <path d="M19.9195906,0 C30.9147381,0 39.8275165,8.91974616 39.8275165,19.9238522 C39.8275165,29.6040811 32.9294202,37.6717681 23.7837191,39.47244 L19.9195906,44.7032475 L16.057453,39.4714446 C6.9097611,37.6727635 0.0116647935,29.6040811 0.0116647935,19.9228568 C0.0116647935,8.92074155 8.92444321,0 19.9195906,0 Z" id="路径" fill="#58CCFC"></path>
                        <path d="M19.9195906,0 C30.9147381,0 39.8275165,8.91974616 39.8275165,19.9238522 C39.8275165,29.6040811 32.9294202,37.6717681 23.7837191,39.47244 L19.9195906,44.7032475 L16.057453,39.4714446 C6.9097611,37.6727635 0.0116647935,29.6040811 0.0116647935,19.9228568 C0.0116647935,8.92074155 8.92444321,0 19.9195906,0 Z M19.9195906,0.99539629 C9.47489734,0.99539629 1.00706108,9.46920491 1.00706108,19.9238522 C1.00706108,28.8893866 7.28203929,36.5599105 15.9031666,38.4242877 L16.2485691,38.4959562 L16.6278151,38.5706109 L19.9195906,43.0279955 L23.2123616,38.5706109 L23.5906122,38.4959562 C32.3909108,36.7639666 38.8321202,29.0088342 38.8321202,19.9238522 C38.8321202,9.46920491 30.3642839,0.99539629 19.9195906,0.99539629 Z" id="形状" fill="#4AADD6"></path>
                    </g>
                </g>
                <g filter="url(#filter-1)" id="noun_splash_800419备份-3">
                    <g filter="url(#filter-2)" transform="translate(5.000000, 6.000000)">
                        <path d="M3.54273813,10.2592138 C2.83188217,10.3041864 1.87156705,10.669331 2.00969295,11.5605395 C2.14781915,12.4517488 3.47655984,12.4032751 4.33001361,12.6127836 C5.18346737,12.8222945 6.70782012,13.1948793 8.51804932,15.3018518 C7.76499166,13.1732886 6.73965414,12.0299606 6.07848751,11.4139713 C5.83055159,11.1829754 5.51147354,10.9562967 5.1726262,10.76585 C4.6078791,10.448438 3.98702419,10.2311059 3.54273813,10.2592138 Z" id="路径" fill="#FFFFFF" fill-rule="nonzero"></path>
                        <path d="M26.7182647,10.2592138 C26.2739756,10.2311067 25.6537792,10.448438 25.0890301,10.76585 C24.7501837,10.9562967 24.4311048,11.1829754 24.1831703,11.4139713 C23.5220022,12.0299606 22.4966639,13.1732886 21.7436025,15.3018518 C23.5538362,13.1948793 25.0781942,12.8222945 25.9316464,12.6127836 C26.7850987,12.4032751 28.1138404,12.4517488 28.2519664,11.5605395 C28.3900955,10.669331 27.4291206,10.3041864 26.7182647,10.2592138 Z" id="路径" fill="#FFFFFF" fill-rule="nonzero"></path>
                        <path d="M3.94857816,14.7185159 C3.34447186,14.7171012 2.79170306,14.8729981 2.29200543,15.1378979 C1.29260902,15.6676967 0.342961627,16.8559533 0.818093269,17.6829392 C1.29322491,18.5099258 2.90358614,17.724855 4.00601746,17.7337722 C5.10844904,17.7426902 7.0384226,17.6223478 9.82239715,19.4925957 C8.41502461,17.0801884 7.328834,15.9717867 5.91532587,15.242953 C5.20857006,14.8785356 4.55268071,14.7199578 3.94857816,14.7185159 L3.94857816,14.7185159 Z" id="路径" fill="#FFFFFF" fill-rule="nonzero"></path>
                        <path d="M26.3134466,14.7185158 C25.709302,14.7199499 25.0533719,14.8785356 24.3465738,15.242953 C22.9329748,15.9717867 21.8467158,17.0801884 20.4392547,19.4925957 C23.2234018,17.6223478 25.1535011,17.7426906 26.2560008,17.7337722 C27.3585004,17.7248542 28.9683902,18.5099258 29.4435485,17.6829392 C29.9187149,16.8559533 28.9690072,15.6676967 27.9695474,15.1378979 C27.4698162,14.8729981 26.9175859,14.7170929 26.3134466,14.7185158 L26.3134466,14.7185158 Z" id="路径" fill="#FFFFFF" fill-rule="nonzero"></path>
                        <path d="M15.1308241,0.087094913 C13.7554958,6.22789084 9.62731941,7.99416325 9.62731941,12.3659944 C9.62731941,15.4363818 11.7630669,18.5086087 15.1308241,18.5086087 C18.7687691,18.5086087 20.6597443,15.4363818 20.6284963,12.3659944 C20.5830085,7.89693252 16.5040671,6.22789084 15.1308241,0.087094913 L15.1308241,0.087094913 Z" id="路径" fill="#FFFFFF" fill-rule="nonzero"></path>
                    </g>
                </g>
            </g>
        </g>
    </g>
</svg>