<?xml version="1.0" encoding="UTF-8"?>
<svg width="64px" height="75px" viewBox="0 0 64 75" version="1.1" xmlns="http://www.w3.org/2000/svg" xmlns:xlink="http://www.w3.org/1999/xlink">
    <title>供水厂</title>
    <defs>
        <linearGradient x1="50%" y1="0%" x2="50%" y2="100%" id="linearGradient-1">
            <stop stop-color="#02AAB0" offset="0%"></stop>
            <stop stop-color="#00CDAC" offset="100%"></stop>
        </linearGradient>
        <linearGradient x1="50%" y1="0%" x2="50%" y2="100%" id="linearGradient-2">
            <stop stop-color="#026467" offset="0%"></stop>
            <stop stop-color="#057260" offset="100%"></stop>
        </linearGradient>
        <linearGradient x1="50%" y1="0%" x2="50%" y2="100%" id="linearGradient-3">
            <stop stop-color="#02AAB0" stop-opacity="0.7" offset="0%"></stop>
            <stop stop-color="#00CDAC" stop-opacity="0.7" offset="100%"></stop>
        </linearGradient>
        <linearGradient x1="50%" y1="0%" x2="50%" y2="100%" id="linearGradient-4">
            <stop stop-color="#02AAB0" stop-opacity="0.3" offset="0%"></stop>
            <stop stop-color="#00CDAC" stop-opacity="0.3" offset="100%"></stop>
        </linearGradient>
    </defs>
    <g id="页面-1" stroke="none" stroke-width="1" fill="none" fill-rule="evenodd">
        <g id="图标" transform="translate(-3491.000000, -611.000000)" fill-rule="nonzero">
            <g id="供水厂" transform="translate(3491.000000, 611.000000)">
                <g id="dianwei-zhifarenyuan备份-3">
                    <path d="M31.871345,0 C49.4635809,0 63.7240264,14.2715939 63.7240264,31.8781635 C63.7240264,47.3665298 52.6870723,60.2748289 38.0539505,63.1559039 L31.871345,71.525196 L25.6919249,63.1543113 C11.0556178,60.2764216 0.0186636696,47.3665298 0.0186636696,31.8765708 C0.0186636696,14.2731865 14.2791091,0 31.871345,0 Z" id="路径" fill="url(#linearGradient-1)"></path>
                    <path d="M31.871345,0 C49.4635809,0 63.7240264,14.2715939 63.7240264,31.8781635 C63.7240264,47.3665298 52.6870723,60.2748289 38.0539505,63.1559039 L31.871345,71.525196 L25.6919249,63.1543113 C11.0556178,60.2764216 0.0186636696,47.3665298 0.0186636696,31.8765708 C0.0186636696,14.2731865 14.2791091,0 31.871345,0 Z M31.871345,1.59263406 C15.1598357,1.59263406 1.61129773,15.1507279 1.61129773,31.8781635 C1.61129773,46.2230186 11.6512629,58.4958567 25.4450666,61.4788603 L25.9977106,61.5935299 L26.6045042,61.7129775 L31.871345,68.8447928 L37.1397785,61.7129775 L37.7449795,61.5935299 C51.8254572,58.8223466 62.1313923,46.4141346 62.1313923,31.8781635 C62.1313923,15.1507279 48.5828543,1.59263406 31.871345,1.59263406 Z" id="形状" fill="url(#linearGradient-2)"></path>
                    <path d="M31.871345,66.8906308 C38.9076023,66.8906308 44.6124175,68.674381 44.6124175,70.872216 C44.6124175,73.070051 38.9076023,74.8538012 31.871345,74.8538012 C24.8350877,74.8538012 19.1302725,73.070051 19.1302725,70.872216 C19.1302725,68.72216 24.577081,66.9718552 31.3935548,66.8938161 L31.871345,66.8906308 Z M31.871345,67.6869479 C25.2889885,67.6869479 19.9265895,69.3623989 19.9265895,70.872216 C19.9265895,72.3820331 25.2889885,74.0574841 31.871345,74.0574841 C38.4537016,74.0574841 43.8161005,72.3820331 43.8161005,70.872216 C43.8161005,69.3990295 38.7117083,67.7681722 32.3507279,67.6901331 L31.871345,67.6869479 Z" id="形状" fill="url(#linearGradient-3)"></path>
                    <path d="M19.1302725,70.872216 C19.1302725,73.0711848 24.834645,74.8538012 31.871345,74.8538012 C38.9080451,74.8538012 44.6124175,73.0711848 44.6124175,70.872216 C44.6124175,68.6732472 38.9080451,66.8906308 31.871345,66.8906308 C24.834645,66.8906308 19.1302725,68.6732472 19.1302725,70.872216 Z" id="路径" fill="url(#linearGradient-4)"></path>
                </g>
                <g id="gongshuiguanwang-备份-2" transform="translate(16.000000, 16.000000)" fill="#FFFFFF">
                    <path d="M0,19.1216667 L1.12,19.1216667 L1.12,29.5616667 C3.11855371,30.2324299 5.28144629,30.2324299 7.28,29.5616667 L7.28,19.335 L8.30666667,19.2416667 L8.30666667,17.615 L0,17.615 L0,19.1216667 Z M24.1733333,16.455 L25.0533333,16.455 L25.0533333,21.3883333 C25.0840674,22.2439991 24.7444405,23.0713815 24.1213928,23.6586805 C23.4983452,24.2459795 22.6523602,24.5361821 21.8,24.455 C20.9191951,24.465124 20.0784482,24.0876321 19.5007625,23.4226516 C18.9230768,22.7576712 18.6668336,21.8724057 18.8,21.0016667 C18.8,21.0016667 18.6666667,8.375 18.48,7.30833333 C18.2666667,5.575 17.1466667,-0.0116666667 10.0133333,0.0416666667 C5.60217971,-0.166215361 1.79477248,3.1031251 1.33333333,7.495 C1.15446687,9.43172929 1.0965767,11.3777297 1.16,13.3216667 L0,13.3216667 L0,14.8816667 L7.81333333,14.8816667 L7.81333333,13.4416667 L6.94666667,13.4416667 L6.94666667,8.64166667 C6.91593256,7.78600089 7.25555954,6.95861852 7.87860719,6.37131951 C8.50165484,5.7840205 9.34763977,5.49381787 10.2,5.575 C11.0808049,5.56487596 11.9215518,5.9423679 12.4992375,6.60734837 C13.0769232,7.27232884 13.3331664,8.15759425 13.2,9.02833333 C13.2,9.02833333 13.3333333,21.7083333 13.52,22.775 C13.7333333,24.5083333 14.8533333,30.095 21.9866667,30.0416667 C26.3978203,30.2495487 30.2052275,26.9802082 30.6666667,22.5883333 C30.8459054,20.6070588 30.9037912,18.6166759 30.84,16.6283333 L32,16.6283333 L32,15.0416667 L24.1866667,15.0416667 L24.1733333,16.455 Z M30.84,10.9083333 L30.84,0.521666667 C28.8414463,-0.149096546 26.6785537,-0.149096546 24.68,0.521666667 L24.68,10.7483333 L23.6533333,10.8416667 L23.6533333,12.4683333 L32,12.4683333 L32,10.9616667 L30.84,10.9083333 Z" id="形状"></path>
                </g>
            </g>
        </g>
    </g>
</svg>