<svg t="1619698578053" class="icon" viewBox="0 0 1705 1024" version="1.1" xmlns="http://www.w3.org/2000/svg"
     p-id="19721" width="32" height="32" data-spm-anchor-id="a313x.7781069.0.i36">
    <path d="M851.668293 0c-282.723902 0-512 229.276098-512 512s229.276098 512 512 512 512-229.276098 512-512S1134.392195 0 851.668293 0z m191.063414 799.094634H578.310244v-45.330732H651.863415l19.106341-272.234146h278.852683l19.480976 272.234146H1042.731707v45.330732z m-22.478048-401.857561c-29.596098 3.87122-57.943415-4.245854-80.296586-20.48-10.489756 20.105366-30.220488 35.090732-54.446829 38.212683-7.742439 0.999024-15.36 0.374634-22.727805-0.999024-2.872195 20.854634-19.106341 38.212683-41.084878 41.084878-26.22439 3.496585-50.325854-15.110244-53.822439-41.334634-3.371707-25.350244 13.861463-48.452683 38.712195-53.198049-0.62439-2.497561-1.498537-4.995122-1.748293-7.617561-5.12-39.336585 22.602927-75.55122 61.939513-80.67122 9.61561-1.24878 18.981463-0.499512 27.722926 1.873171 5.494634-50.076098 44.331707-91.910244 96.530732-98.778537 61.315122-7.992195 117.510244 35.090732 125.502439 96.405854 8.241951 61.315122-34.965854 117.510244-96.280975 125.502439z"
          p-id="19722" fill="#8904B1" data-spm-anchor-id="a313x.7781069.0.i37" class="selected"></path>
</svg>
