<?xml version="1.0" standalone="no"?><!DOCTYPE svg PUBLIC "-//W3C//DTD SVG 1.1//EN"
        "http://www.w3.org/Graphics/SVG/1.1/DTD/svg11.dtd">
<svg t="1619695130837" class="icon" viewBox="0 0 1024 1024" version="1.1" xmlns="http://www.w3.org/2000/svg" p-id="1423"
     width="32" height="32" xmlns:xlink="http://www.w3.org/1999/xlink">
    <defs>
        <style type="text/css"></style>
    </defs>
    <path d="M704 896A64 64 0 1 1 768 960a64 64 0 0 1-64-64z m-256 0A64 64 0 1 1 512 960a64 64 0 0 1-64-64z m-256 0A64 64 0 1 1 256 960a64 64 0 0 1-64-64zM128 768a64 64 0 0 1 0-128h768a64 64 0 0 1 0 128zM89.975467 513.348267c-24.1152 0-35.191467-24.763733-16.708267-37.632L320 257.348267h384l246.715733 218.368c18.568533 12.8 7.4752 37.632-16.708266 37.632zM320 256V96a32 32 0 0 1 32-32h320a32 32 0 0 1 32 32V256z"
          fill="#8a8a8a" p-id="1424"></path>
</svg>
