<?xml version="1.0" encoding="UTF-8"?>
<svg width="34px" height="42px" viewBox="0 0 34 42" version="1.1" xmlns="http://www.w3.org/2000/svg" xmlns:xlink="http://www.w3.org/1999/xlink">
    <title>机动车-2</title>
    <g id="页面-1" stroke="none" stroke-width="1" fill="none" fill-rule="evenodd">
        <g id="点位icon" transform="translate(-289.000000, -83.000000)" fill="#F8C900" fill-rule="nonzero">
            <path d="M305.75,83 C314.586556,83 321.75,90.163444 321.75,99 C321.75,105.380233 318.015531,110.888233 312.613206,113.45739 C312.076551,113.712604 311.523437,113.938818 310.955891,114.134006 C309.323878,114.695279 307.572525,125 305.75,125 C304.029844,125 302.373088,114.728549 300.820233,114.226146 C300.198389,114.024958 299.593207,113.786735 299.007288,113.514076 C298.88652,113.457876 298.766571,113.400214 298.647463,113.341112 C293.374485,110.724613 289.75,105.285579 289.75,99 C289.75,90.163444 296.913444,83 305.75,83 Z M311.444444,91 L300.055556,91 C299.5,91.1976744 299.083333,91.6495017 298.805556,92.3837209 C298.111111,94.4169435 297.472222,96.4219269 296.75,98.4269103 L296.777778,105.486711 L296.777778,106.58804 C296.777778,107.378738 297.416667,108 298.166667,108 C298.944444,108 299.555556,107.378738 299.555556,106.58804 L299.555556,105.51495 L311.944444,105.51495 L311.944444,106.58804 C311.944444,107.378738 312.555556,108 313.333333,108 C314.083333,108 314.722222,107.378738 314.722222,106.58804 L314.722222,105.486711 L314.75,98.4269103 C314.027778,96.4219269 313.361111,94.4169435 312.694444,92.3837209 C312.416667,91.6495017 312,91.1976744 311.444444,91 Z M310.25,99.4272897 C311.092105,99.4272897 311.75,100.085184 311.75,100.92729 C311.75,101.743079 311.092105,102.42729 310.25,102.42729 C309.43421,102.42729 308.75,101.743079 308.75,100.92729 C308.75,100.085184 309.43421,99.4272897 310.25,99.4272897 Z M301.25,99.4272897 C302.092105,99.4272897 302.75,100.085184 302.75,100.92729 C302.75,101.743079 302.092105,102.42729 301.25,102.42729 C300.43421,102.42729 299.75,101.743079 299.75,100.92729 C299.75,100.085184 300.43421,99.4272897 301.25,99.4272897 Z M311.083333,92 L312.75,97 L298.75,97 L300.388889,92 L311.083333,92 Z" id="机动车-2"></path>
        </g>
    </g>
</svg>
