<?xml version="1.0" encoding="UTF-8"?>
<svg width="34px" height="42px" viewBox="0 0 34 42" version="1.1" xmlns="http://www.w3.org/2000/svg" xmlns:xlink="http://www.w3.org/1999/xlink">
    <title>机动车-3</title>
    <g id="页面-1" stroke="none" stroke-width="1" fill="none" fill-rule="evenodd">
        <g id="点位icon" transform="translate(-289.000000, -145.000000)" fill="#F19D38" fill-rule="nonzero">
            <path d="M305.75,145 C314.586556,145 321.75,152.163444 321.75,161 C321.75,167.380233 318.015531,172.888233 312.613206,175.45739 C312.076551,175.712604 311.523437,175.938818 310.955891,176.134006 C309.323878,176.695279 307.572525,187 305.75,187 C304.029844,187 302.373088,176.728549 300.820233,176.226146 C300.198389,176.024958 299.593207,175.786735 299.007288,175.514076 C298.88652,175.457876 298.766571,175.400214 298.647463,175.341112 C293.374485,172.724613 289.75,167.285579 289.75,161 C289.75,152.163444 296.913444,145 305.75,145 Z M311.444444,153 L300.055556,153 C299.5,153.197674 299.083333,153.649502 298.805556,154.383721 C298.111111,156.416944 297.472222,158.421927 296.75,160.42691 L296.777778,167.486711 L296.777778,168.58804 C296.777778,169.378738 297.416667,170 298.166667,170 C298.944444,170 299.555556,169.378738 299.555556,168.58804 L299.555556,167.51495 L311.944444,167.51495 L311.944444,168.58804 C311.944444,169.378738 312.555556,170 313.333333,170 C314.083333,170 314.722222,169.378738 314.722222,168.58804 L314.722222,167.486711 L314.75,160.42691 C314.027778,158.421927 313.361111,156.416944 312.694444,154.383721 C312.416667,153.649502 312,153.197674 311.444444,153 Z M310.25,161.42729 C311.092105,161.42729 311.75,162.085184 311.75,162.92729 C311.75,163.743079 311.092105,164.42729 310.25,164.42729 C309.43421,164.42729 308.75,163.743079 308.75,162.92729 C308.75,162.085184 309.43421,161.42729 310.25,161.42729 Z M301.25,161.42729 C302.092105,161.42729 302.75,162.085184 302.75,162.92729 C302.75,163.743079 302.092105,164.42729 301.25,164.42729 C300.43421,164.42729 299.75,163.743079 299.75,162.92729 C299.75,162.085184 300.43421,161.42729 301.25,161.42729 Z M311.083333,154 L312.75,159 L298.75,159 L300.388889,154 L311.083333,154 Z" id="机动车-3"></path>
        </g>
    </g>
</svg>
