<?xml version="1.0" encoding="UTF-8"?>
<svg width="34px" height="42px" viewBox="0 0 34 42" version="1.1" xmlns="http://www.w3.org/2000/svg" xmlns:xlink="http://www.w3.org/1999/xlink">
    <title>机动车-1</title>
    <g id="页面-1" stroke="none" stroke-width="1" fill="none" fill-rule="evenodd">
        <g id="点位icon" transform="translate(-289.000000, -21.000000)" fill="#46C96F" fill-rule="nonzero">
            <path d="M305.75,21 C314.586556,21 321.75,28.163444 321.75,37 C321.75,43.3802326 318.015531,48.8882334 312.613206,51.4573897 C312.076551,51.7126041 311.523437,51.938818 310.955891,52.1340055 C309.323878,52.6952788 307.572525,63 305.75,63 C304.029844,63 302.373088,52.7285489 300.820233,52.2261464 C300.198389,52.0249584 299.593207,51.7867347 299.007288,51.5140759 C298.88652,51.4578765 298.766571,51.4002141 298.647463,51.3411116 C293.374485,48.7246132 289.75,43.2855785 289.75,37 C289.75,28.163444 296.913444,21 305.75,21 Z M311.444444,29 L300.055556,29 C299.5,29.1976744 299.083333,29.6495017 298.805556,30.3837209 C298.111111,32.4169435 297.472222,34.4219269 296.75,36.4269103 L296.777778,43.486711 L296.777778,44.5880399 C296.777778,45.3787375 297.416667,46 298.166667,46 C298.944444,46 299.555556,45.3787375 299.555556,44.5880399 L299.555556,43.5149502 L311.944444,43.5149502 L311.944444,44.5880399 C311.944444,45.3787375 312.555556,46 313.333333,46 C314.083333,46 314.722222,45.3787375 314.722222,44.5880399 L314.722222,43.486711 L314.75,36.4269103 C314.027778,34.4219269 313.361111,32.4169435 312.694444,30.3837209 C312.416667,29.6495017 312,29.1976744 311.444444,29 Z M310.25,37.4272897 C311.092105,37.4272897 311.75,38.0851844 311.75,38.9272897 C311.75,39.7430791 311.092105,40.4272897 310.25,40.4272897 C309.43421,40.4272897 308.75,39.7430791 308.75,38.9272897 C308.75,38.0851844 309.43421,37.4272897 310.25,37.4272897 Z M301.25,37.4272897 C302.092105,37.4272897 302.75,38.0851844 302.75,38.9272897 C302.75,39.7430791 302.092105,40.4272897 301.25,40.4272897 C300.43421,40.4272897 299.75,39.7430791 299.75,38.9272897 C299.75,38.0851844 300.43421,37.4272897 301.25,37.4272897 Z M311.083333,30 L312.75,35 L298.75,35 L300.388889,30 L311.083333,30 Z" id="机动车-1"></path>
        </g>
    </g>
</svg>
